<svg class="animated" id="freepik_stories-time-flies" xmlns="http://www.w3.org/2000/svg" viewBox="0 0 500 500" version="1.1" xmlns:xlink="http://www.w3.org/1999/xlink" xmlns:svgjs="http://svgjs.com/svgjs"><style>svg#freepik_stories-time-flies:not(.animated) .animable {opacity: 0;}svg#freepik_stories-time-flies.animated #freepik--Clouds--inject-5 {animation: 1s 1 forwards cubic-bezier(.36,-0.01,.5,1.38) zoomOut;animation-delay: 0s;}svg#freepik_stories-time-flies.animated #freepik--lines-2--inject-5 {animation: 1s 1 forwards cubic-bezier(.36,-0.01,.5,1.38) slideDown;animation-delay: 0s;}svg#freepik_stories-time-flies.animated #freepik--clock-2--inject-5 {animation: 1s 1 forwards cubic-bezier(.36,-0.01,.5,1.38) zoomIn;animation-delay: 0s;}svg#freepik_stories-time-flies.animated #freepik--lines-1--inject-5 {animation: 1s 1 forwards cubic-bezier(.36,-0.01,.5,1.38) slideLeft;animation-delay: 0s;}svg#freepik_stories-time-flies.animated #freepik--clock-1--inject-5 {animation: 1s 1 forwards cubic-bezier(.36,-0.01,.5,1.38) lightSpeedLeft;animation-delay: 0s;}            @keyframes zoomOut {                0% {                    opacity: 0;                    transform: scale(1.5);                }                100% {                    opacity: 1;                    transform: scale(1);                }            }                    @keyframes slideDown {                0% {                    opacity: 0;                    transform: translateY(-30px);                }                100% {                    opacity: 1;                    transform: translateY(0);                }            }                    @keyframes zoomIn {                0% {                    opacity: 0;                    transform: scale(0.5);                }                100% {                    opacity: 1;                    transform: scale(1);                }            }                    @keyframes slideLeft {                0% {                    opacity: 0;                    transform: translateX(-30px);                }                100% {                    opacity: 1;                    transform: translateX(0);                }            }                    @keyframes lightSpeedLeft {              from {                transform: translate3d(-50%, 0, 0) skewX(20deg);                opacity: 0;              }              60% {                transform: skewX(-10deg);                opacity: 1;              }              80% {                transform: skewX(2deg);              }              to {                opacity: 1;                transform: translate3d(0, 0, 0);              }            }        </style><g id="freepik--Clouds--inject-5" class="animable" style="transform-origin: 250.51px 236.214px;"><path id="freepik--Cloud--inject-5" d="M404.2,413.05a17.73,17.73,0,0,0-6-1.1c-1.94-.16-2.55-.54-2.92-1a14.3,14.3,0,0,0-17.15-5.07c-1.14-4.64-6.75-8.66-12.93-7.31.21-6-7.49-12.5-14.4-14-6.64-1.41-12.42-.82-16.2,3.54-4.05-7.91-19.93-10.14-28.52-5.95-4.94,2.4-9.14,4.87-11.19,9.4a19,19,0,0,0-1.86,9c-3.35-2.95-10.05-3.75-14.52-2-4.82,1.87-5.19,5.5-5.43,9.2a16.92,16.92,0,0,0-8.78-.16c-3,.9-4.79,3.29-4.37,5.21-2.4-.13-8.13,1.81-7.47,4.35.74,2.85,7.28,2.56,9.72,2.47a44.73,44.73,0,0,0,6.84-1.07,10.43,10.43,0,0,0,3.55.67c4.17,0,5.93-1.81,6.6-3.36,2,4.28,9.26,7.54,14.38,8.85,9.62,2.46,23.25,1,29.18-6.24a10.77,10.77,0,0,0,2.86,3.5,16.69,16.69,0,0,0,8.91,3.61c4,.37,14.57.87,17.56-5.41,2.11,4.18,11.56,6.08,18.74,5.06a29.26,29.26,0,0,0,8.05-2.43,48.65,48.65,0,0,0,4.62-2.77c1.42-.85,2.06-.84,3.94-.27,4.93,1.49,10.66,2.09,15.69,0C407.13,418.12,408,414.76,404.2,413.05Z" style="fill: rgb(245, 245, 245); transform-origin: 329.52px 402.954px;" class="animable"></path><path id="freepik--cloud--inject-5" d="M351,349.36a11.73,11.73,0,0,1,3.9-.72c1.26-.1,1.66-.35,1.9-.62a9.32,9.32,0,0,1,11.18-3.3c.74-3,4.4-5.65,8.43-4.77-.14-3.93,4.88-8.15,9.38-9.11,4.33-.92,8.09-.53,10.56,2.31,2.64-5.15,13-6.61,18.59-3.88,3.22,1.57,5.67,3.32,7.29,6.13a7.77,7.77,0,0,1,1.16,4.45c5.23-5.76,15.27.63,17,6.5a6.82,6.82,0,0,1,10.13,3.37,13.82,13.82,0,0,1,6.93.49,2.29,2.29,0,0,1,1.48,1.07,1.71,1.71,0,0,1-.56,1.89c-1.41,1.17-4,1.64-7.67,1.45-.66.3-1.66.79-2.3,1.16a12.21,12.21,0,0,1-4.93,1.33c-4.81.06-8.82-.84-11.05-3.22a13.06,13.06,0,0,1-16.7,2.65,1.76,1.76,0,0,0-1.24-.44,1.81,1.81,0,0,0-.58.27c-3.56,2.22-10.37,2.38-13.43-.28a18.51,18.51,0,0,1-8.42,1.54c-2.64-.21-5.86-1-7.11-3.59-1.38,2.72-7.53,4-12.22,3.3a19.54,19.54,0,0,1-5.24-1.58,32,32,0,0,1-3-1.81,2.52,2.52,0,0,0-2.57-.18c-3.22,1-6.95,1.37-10.23,0C349.09,352.67,348.54,350.48,351,349.36Z" style="fill: rgb(245, 245, 245); transform-origin: 404.219px 343.181px;" class="animable"></path><path id="freepik--cloud--inject-5" d="M156.05,270.69a13.42,13.42,0,0,0-4.5-.83c-1.45-.11-1.91-.4-2.19-.72a10.75,10.75,0,0,0-12.89-3.81c-.86-3.48-5.07-6.51-9.72-5.49.16-4.53-5.62-9.39-10.82-10.5-5-1.06-9.33-.62-12.17,2.66-3-5.94-15-7.62-21.43-4.47-3.71,1.81-6.86,3.66-8.4,7.06a14.2,14.2,0,0,0-1.4,6.77c-2.52-2.22-7.56-2.82-10.92-1.52-3.62,1.4-3.9,4.13-4.07,6.91a12.83,12.83,0,0,0-6.6-.12c-2.28.68-3.6,2.47-3.29,3.92-1.8-.1-6.11,1.36-5.61,3.27.55,2.14,5.47,1.92,7.3,1.85a33.87,33.87,0,0,0,5.14-.8,8,8,0,0,0,2.67.5c3.13,0,4.46-1.36,5-2.52,1.53,3.21,7,5.66,10.8,6.64,7.24,1.86,17.48.73,21.93-4.68A8.13,8.13,0,0,0,97,277.44a12.54,12.54,0,0,0,6.69,2.71c3,.28,10.94.66,13.19-4.07,1.59,3.14,8.69,4.57,14.09,3.81a22.17,22.17,0,0,0,6-1.83,36.36,36.36,0,0,0,3.48-2.08c1.06-.64,1.54-.63,3-.2,3.7,1.11,8,1.57,11.78,0C158.25,274.5,158.88,272,156.05,270.69Z" style="fill: rgb(245, 245, 245); transform-origin: 99.9336px 263.146px;" class="animable"></path><path id="freepik--cloud--inject-5" d="M167.85,119a12.89,12.89,0,0,0-4.37-.8c-1.42-.11-1.87-.39-2.14-.7a10.43,10.43,0,0,0-12.52-3.7c-.83-3.39-4.92-6.33-9.44-5.34.16-4.4-5.46-9.12-10.51-10.2-4.84-1-9.06-.6-11.82,2.59-3-5.78-14.55-7.41-20.82-4.35-3.61,1.76-6.67,3.56-8.17,6.87a13.75,13.75,0,0,0-1.36,6.57c-2.44-2.16-7.34-2.74-10.6-1.48-3.52,1.36-3.79,4-4,6.72a12.35,12.35,0,0,0-6.41-.12c-2.22.66-3.5,2.4-3.19,3.81-1.76-.1-5.94,1.32-5.46,3.17.54,2.08,5.32,1.87,7.1,1.8a33.17,33.17,0,0,0,5-.78,7.62,7.62,0,0,0,2.6.49c3,0,4.32-1.32,4.81-2.45,1.48,3.12,6.77,5.5,10.5,6.46,7,1.8,17,.7,21.3-4.55a7.86,7.86,0,0,0,2.09,2.55,12.2,12.2,0,0,0,6.51,2.63c2.88.27,10.63.64,12.81-4,1.55,3,8.44,4.44,13.69,3.7a21.72,21.72,0,0,0,5.87-1.77,35,35,0,0,0,3.37-2c1-.62,1.5-.61,2.88-.2,3.6,1.09,7.78,1.53,11.45,0C170,122.66,170.6,120.21,167.85,119Z" style="fill: rgb(245, 245, 245); transform-origin: 113.309px 111.674px;" class="animable"></path><path id="freepik--cloud--inject-5" d="M369.53,74a15,15,0,0,0-5-.92c-1.62-.12-2.13-.44-2.44-.79a11.9,11.9,0,0,0-14.3-4.23c-.95-3.87-5.63-7.22-10.78-6.09.18-5-6.24-10.43-12-11.66-5.52-1.17-10.34-.68-13.5,3-3.38-6.6-16.62-8.46-23.78-5-4.12,2-7.62,4.07-9.32,7.84a15.84,15.84,0,0,0-1.56,7.51c-2.79-2.46-8.38-3.13-12.11-1.69-4,1.56-4.32,4.59-4.52,7.67a14.08,14.08,0,0,0-7.32-.13c-2.53.75-4,2.74-3.65,4.35-2-.11-6.77,1.51-6.23,3.62.62,2.38,6.07,2.14,8.11,2.06a37.69,37.69,0,0,0,5.7-.89,8.81,8.81,0,0,0,3,.56c3.48,0,4.95-1.51,5.5-2.81,1.7,3.57,7.73,6.29,12,7.38,8,2.06,19.39.8,24.33-5.2A9.05,9.05,0,0,0,304,81.5a14,14,0,0,0,7.43,3c3.3.31,12.14.73,14.64-4.51,1.76,3.48,9.64,5.07,15.63,4.22a24.58,24.58,0,0,0,6.7-2,38.61,38.61,0,0,0,3.86-2.31c1.18-.71,1.71-.7,3.29-.22,4.11,1.24,8.88,1.74,13.07,0C372,78.24,372.67,75.44,369.53,74Z" style="fill: rgb(245, 245, 245); transform-origin: 307.267px 65.6509px;" class="animable"></path></g><g id="freepik--lines-2--inject-5" class="animable" style="transform-origin: 101.508px 360.872px;"><path id="freepik--Lines--inject-5" d="M129.93,413.38a1.36,1.36,0,0,0-.66-.87l-65-35.58L128,415.24a1.36,1.36,0,0,0,2-1.52Zm48.48-73.95-42.76-23.11L177,341.78a1.37,1.37,0,0,0,1,.18h0A1.35,1.35,0,0,0,178.41,339.43Zm-18.73,11.43-80.1-44.54,78.55,47.05a1.36,1.36,0,0,0,1.57-.14l.19-.15A1.36,1.36,0,0,0,159.68,350.86Zm-27.15,39.67a1.35,1.35,0,0,0,2-.79l.42-1.37h0L23.88,326Zm11.89-23.07L85.58,335.23l57.31,34.83a1.36,1.36,0,0,0,1.82-.41,1.88,1.88,0,0,1,.16-.23A1.36,1.36,0,0,0,144.42,367.46Z" style="fill: rgb(245, 245, 245); transform-origin: 101.508px 360.872px;" class="animable"></path></g><g id="freepik--clock-2--inject-5" class="animable" style="transform-origin: 160.983px 373.389px;"><g id="freepik--Clock--inject-5" class="animable" style="transform-origin: 160.983px 373.389px;"><path d="M135.8,372.78c-8.76-2.22-18.26,1.33-32.41-6.62-11.89-6.69-22.1-22-24.52-12.31-.83,4.65,6.52,16,10.81,19.5-9.7-4.29-12.36-2.72-8.92,4.54,4.45,9.36,15,16.19,15,16.19s-7.17,1.62-1,7.7c8.23,8,24.34,7.37,24.34,7.37s-12.42,3.41-6,6.59a16.91,16.91,0,0,0,6,1.31c20.11,1.33,35.87-21.87,27.36-37.45C144.23,375.35,139.28,373.67,135.8,372.78Z" style="fill: #3C4E82; transform-origin: 113.812px 383.914px;" id="elhnhg1h27ta" class="animable"></path><g id="elwi60sc4q6v"><path d="M135.8,372.78c-8.76-2.22-18.26,1.33-32.41-6.62-11.89-6.69-22.1-22-24.52-12.31-.83,4.65,6.52,16,10.81,19.5-9.7-4.29-12.36-2.72-8.92,4.54,4.45,9.36,15,16.19,15,16.19s-7.17,1.62-1,7.7c8.23,8,24.34,7.37,24.34,7.37s-12.42,3.41-6,6.59a16.91,16.91,0,0,0,6,1.31c20.11,1.33,35.87-21.87,27.36-37.45C144.23,375.35,139.28,373.67,135.8,372.78Z" style="fill: rgb(255, 255, 255); opacity: 0.65; transform-origin: 113.812px 383.914px;" class="animable" id="elutoakr69vck"></path></g><g id="elbqyzmkxlevj"><path d="M137.9,380.88c-5.47-2-11.28-2.85-16.89-4.41-7.47-2.09-14.53-5.42-21.55-8.72l-5-3.48c-1.5,2.66-.58,6.53,1,9.15a19.83,19.83,0,0,0,6.64,6.2,4.69,4.69,0,0,0-.4,5.26,10,10,0,0,0,4.08,3.77,23.89,23.89,0,0,0,7.77,2.75,2.68,2.68,0,0,0-1.72,3.42,6.46,6.46,0,0,0,3.07,3.93,16,16,0,0,0,6.44,1.72,43.27,43.27,0,0,0,6.92-.06c-.76,1.13,0,2.73,1.16,3.5,3.23,2.24,7.73,2.12,11.35,1a18.15,18.15,0,0,0,3.84-1.73,26.37,26.37,0,0,0,4.26-15.35A27.39,27.39,0,0,0,137.9,380.88Z" style="fill: #3C4E82; opacity: 0.4; transform-origin: 121.293px 384.981px;" class="animable" id="el11sk0m0abzb"></path></g><path d="M130.22,372.67a138,138,0,0,1-16.61-3.37A160.48,160.48,0,0,1,98,363.66a3.82,3.82,0,0,0-2.24-.35c-1.16.28-1.71,1.59-1.77,2.79a10.23,10.23,0,0,0,1.45,5.25,17.08,17.08,0,0,0,9.67,7.07,3.5,3.5,0,0,0-2.27,3.57c.25,2.42,1.93,3.64,3.3,4.52,3.45,2.21,8.07,3.11,12.15,3.51-1.56.66-3.3,1.52-3.76,3.15-1,3.68,3.85,4.91,6.43,5.38a40.12,40.12,0,0,0,10.5.1c-1.06.76-.81,2.51.13,3.4,2.93,2.72,9.38,1.27,12.23-1,3.88-3.13,5.6-7.8,5-13.92-.86-4.35-3.86-9.16-7.62-11.49-3.14-2-7-2.38-10.63-2.89Z" style="fill: #3C4E82; transform-origin: 121.463px 383.399px;" id="elxgkw8m1a3zo" class="animable"></path><g id="elss82rnoi5y"><path d="M130.22,372.67a138,138,0,0,1-16.61-3.37A160.48,160.48,0,0,1,98,363.66a3.82,3.82,0,0,0-2.24-.35c-1.16.28-1.71,1.59-1.77,2.79a10.23,10.23,0,0,0,1.45,5.25,17.08,17.08,0,0,0,9.67,7.07,3.5,3.5,0,0,0-2.27,3.57c.25,2.42,1.93,3.64,3.3,4.52,3.45,2.21,8.07,3.11,12.15,3.51-1.56.66-3.3,1.52-3.76,3.15-1,3.68,3.85,4.91,6.43,5.38a40.12,40.12,0,0,0,10.5.1c-1.06.76-.81,2.51.13,3.4,2.93,2.72,9.38,1.27,12.23-1,3.88-3.13,5.6-7.8,5-13.92-.86-4.35-3.86-9.16-7.62-11.49-3.14-2-7-2.38-10.63-2.89Z" style="fill: rgb(255, 255, 255); opacity: 0.75; transform-origin: 121.463px 383.399px;" class="animable" id="el3bkgja7k85y"></path></g><g id="elfascrg7wvs"><path d="M146.55,379.6c-2.32-4.25-7.27-5.93-10.75-6.82-8.76-2.22-18.26,1.33-32.41-6.62-8.63-4.85-16.36-14.24-20.88-15.33l.14,1.61c4.28,1.57,7.48,7,14.12,12.67s15.06,9.34,27.05,10.38,18,0,22.58,7c.73,1.11,1.29,1.33,1.71.92A18.88,18.88,0,0,0,146.55,379.6Z" style="fill: #3C4E82; opacity: 0.4; transform-origin: 115.31px 367.216px;" class="animable" id="elbeowkkj4z89"></path></g><path d="M148.82,387.11c-.28-7.12-4.54-16-16.6-16.11-16.17-.13-27.8-4.53-40.48-16.31-6.16-5.73-12.94-6.25-12.92.28.43-3.82,5-3.72,10.18,1.68,6,6.24,12.71,12.78,26.47,16s18.83,1.25,24,3.46C143.34,377.77,146.81,382.07,148.82,387.11Z" style="fill: #3C4E82; transform-origin: 113.82px 368.671px;" id="eli5zhrxhacj" class="animable"></path><g id="elztpb7kx4mgd"><path d="M148.82,387.11c-.28-7.12-4.54-16-16.6-16.11-16.17-.13-27.8-4.53-40.48-16.31-6.16-5.73-12.94-6.25-12.92.28.43-3.82,5-3.72,10.18,1.68,6,6.24,12.71,12.78,26.47,16s18.83,1.25,24,3.46C143.34,377.77,146.81,382.07,148.82,387.11Z" style="fill: rgb(255, 255, 255); opacity: 0.9; transform-origin: 113.82px 368.671px;" class="animable" id="elkylszs1wag"></path></g><path d="M198.19,343.11c3.79-7.68,12.16-12.33,15.14-27.44,2.51-12.7-2.21-29.52,6.23-25.27,3.84,2.28,7.44,14.57,7.35,19.85,2.87-9.64,5.63-10.59,8.72-3.62,4,9,2.41,20.82,2.41,20.82s5-3.42,5.12,4.84c.12,9.86-10.59,23.78-10.59,23.78,3-2.62,10-5.8,7.5,1-1,2.72-6.31,8.85-17.07,13.56-12.89,5.65-26.23-4.26-26.52-15.52C196.37,350.47,196.69,346.15,198.19,343.11Z" style="fill: #3C4E82; transform-origin: 219.811px 330.998px;" id="elf6b5z0nh2wf" class="animable"></path><g id="el7gks41a9dn8"><path d="M198.19,343.11c3.79-7.68,12.16-12.33,15.14-27.44,2.51-12.7-2.21-29.52,6.23-25.27,3.84,2.28,7.44,14.57,7.35,19.85,2.87-9.64,5.63-10.59,8.72-3.62,4,9,2.41,20.82,2.41,20.82s5-3.42,5.12,4.84c.12,9.86-10.59,23.78-10.59,23.78,3-2.62,10-5.8,7.5,1-1,2.72-6.31,8.85-17.07,13.56-12.89,5.65-26.23-4.26-26.52-15.52C196.37,350.47,196.69,346.15,198.19,343.11Z" style="fill: rgb(255, 255, 255); opacity: 0.65; transform-origin: 219.811px 330.998px;" class="animable" id="eldxo20pex1ua"></path></g><g id="elo2lv4x1hvh"><path d="M202.71,349.63c1.94-5.17,4.88-9.89,7.2-14.9,3.09-6.67,5-13.81,7-20.91l.56-5.74c2.84.57,5,3.62,6,6.37a19,19,0,0,1,.37,8.63,4.41,4.41,0,0,1,4,3,9.52,9.52,0,0,1,.19,5.27,22.67,22.67,0,0,1-2.79,7.29,2.54,2.54,0,0,1,3.51.89,6.14,6.14,0,0,1,.93,4.63,14.94,14.94,0,0,1-2.72,5.7,40.79,40.79,0,0,1-4.29,4.95c1.28.15,1.94,1.71,1.8,3-.38,3.71-3.23,6.87-6.26,8.78a17.14,17.14,0,0,1-3.6,1.69c-6.9,1.53-14-1.43-13.62-6.43A26.05,26.05,0,0,1,202.71,349.63Z" style="fill: #3C4E82; opacity: 0.4; transform-origin: 215.33px 338.382px;" class="animable" id="el2klve640mbi"></path></g><path d="M201.54,339a132.49,132.49,0,0,0,7.78-14,156.42,156.42,0,0,0,5.57-14.77,3.62,3.62,0,0,1,1.11-1.83,2.64,2.64,0,0,1,3.09.45,9.76,9.76,0,0,1,2.88,4.3,16.28,16.28,0,0,1-.87,11.33,3.29,3.29,0,0,1,4,.58,5.74,5.74,0,0,1,1.21,5.16c-.53,3.86-2.72,7.74-4.94,10.93,1.44-.72,3.12-1.44,4.57-.77,3.28,1.52,1.15,5.82-.09,8a38.1,38.1,0,0,1-6.37,7.62c1.19-.29,2.3,1,2.35,2.2.16,3.79-4.84,7.54-8.23,8.17-4.63.86-10.14,1.64-14.19-2.55-2.59-3.31-3.09-10.87-2.46-15,.53-3.48,2.58-6.49,4.45-9.45Z" style="fill: #3C4E82; transform-origin: 212.194px 337.571px;" id="elfkkx7e6ozeo" class="animable"></path><g id="elja0oxdwiw9j"><path d="M201.54,339a132.49,132.49,0,0,0,7.78-14,156.42,156.42,0,0,0,5.57-14.77,3.62,3.62,0,0,1,1.11-1.83,2.64,2.64,0,0,1,3.09.45,9.76,9.76,0,0,1,2.88,4.3,16.28,16.28,0,0,1-.87,11.33,3.29,3.29,0,0,1,4,.58,5.74,5.74,0,0,1,1.21,5.16c-.53,3.86-2.72,7.74-4.94,10.93,1.44-.72,3.12-1.44,4.57-.77,3.28,1.52,1.15,5.82-.09,8a38.1,38.1,0,0,1-6.37,7.62c1.19-.29,2.3,1,2.35,2.2.16,3.79-4.84,7.54-8.23,8.17-4.63.86-10.14,1.64-14.19-2.55-2.59-3.31-3.09-10.87-2.46-15,.53-3.48,2.58-6.49,4.45-9.45Z" style="fill: rgb(255, 255, 255); opacity: 0.75; transform-origin: 212.194px 337.571px;" class="animable" id="eldnosq7txffe"></path></g><g id="elqy1r7swfhnl"><path d="M195.85,355.71c-.85-4.53.84-9.56,2.34-12.6,3.79-7.68,12.16-12.33,15.14-27.44,1.82-9.21-.16-20.59,1.83-24.52l1.07,1.1c-1.51,4.05.41,9.7.42,18a43.35,43.35,0,0,1-8.22,26.45c-6.62,9.28-9.25,12.11-9.81,20-.15,2.07-.18,4.12-.73,4.17A13.8,13.8,0,0,1,195.85,355.71Z" style="fill: #3C4E82; opacity: 0.4; transform-origin: 206.142px 326.01px;" class="animable" id="elgbqzc37uhka"></path></g><path d="M199.37,363.77c-4.93-4.6-7.59-15.6-.26-24.35,9.83-11.72,13-22.91,13.15-39.24.1-9,3.46-13.18,8.13-9.13-3-2.05-5.53,1.65-5.38,9.2.16,8.7-.07,18.5-4.44,28.13-5.53,12.19-10.66,14.33-12.24,19.4C197.14,351.62,197,359.21,199.37,363.77Z" style="fill: #3C4E82; transform-origin: 207.484px 326.635px;" id="ell561qvigndd" class="animable"></path><g id="elxc2r50yt3zk"><path d="M199.37,363.77c-4.93-4.6-7.59-15.6-.26-24.35,9.83-11.72,13-22.91,13.15-39.24.1-9,3.46-13.18,8.13-9.13-3-2.05-5.53,1.65-5.38,9.2.16,8.7-.07,18.5-4.44,28.13-5.53,12.19-10.66,14.33-12.24,19.4C197.14,351.62,197,359.21,199.37,363.77Z" style="fill: rgb(255, 255, 255); opacity: 0.9; transform-origin: 207.484px 326.635px;" class="animable" id="elhrsi32zzg5e"></path></g><g id="freepik--Timer--inject-5" class="animable" style="transform-origin: 189.085px 396.211px;"><g id="freepik--clock--inject-5" class="animable" style="transform-origin: 189.085px 398.7px;"><g id="freepik--clock--inject-5" class="animable" style="transform-origin: 189.085px 398.7px;"><path d="M215,354.69l-16.19-9.34c-6.48-3.67-15.4-3.1-25.24,2.58-19.82,11.44-35.88,39.26-35.88,62.14,0,11.37,4,19.37,10.39,23.15l16.18,9.34,2.28-6a37.78,37.78,0,0,0,9.92-4.11c19.82-11.44,35.88-39.26,35.88-62.14A38.17,38.17,0,0,0,211,359.75Z" style="fill: #3C4E82; transform-origin: 176.345px 392.797px;" id="el0i5cmf14dlfw" class="animable"></path><g id="el5m6q3l0dm6q"><path d="M138,404.47a53.32,53.32,0,0,0-.32,5.6c0,11.37,4,19.37,10.39,23.15l16.18,9.34,2.28-6c.75-.18,1.51-.4,2.27-.65l3.39-11.7Z" style="opacity: 0.1; transform-origin: 154.935px 423.515px;" class="animable" id="elir9i5x1nb4"></path></g><g id="el3vd45uuwfjg"><ellipse cx="189.76" cy="398.7" rx="50.73" ry="29.29" style="fill: #3C4E82; transform-origin: 189.76px 398.7px; transform: rotate(-60deg);" class="animable" id="eleqertxf3r4v"></ellipse></g><g id="elcudbjfs4b7f"><ellipse cx="189.76" cy="398.7" rx="50.73" ry="29.29" style="fill: rgb(255, 255, 255); opacity: 0.3; transform-origin: 189.76px 398.7px; transform: rotate(-60deg);" class="animable" id="ell15615l5qr"></ellipse></g><path d="M217,364.48c-4.45-7.7-13.57-8.57-24.4-2.32-17.91,10.34-33.05,36.56-33.05,57.25,0,5.42,1,10.09,3,13.5,4.45,7.71,13.57,8.58,24.4,2.32C204.86,424.89,220,398.67,220,378c0-5.42-1-10.09-3-13.5Z" style="fill: #3C4E82; transform-origin: 189.775px 398.699px;" id="elqf38fis27bc" class="animable"></path><path d="M217.48,364.77c-5-8-14.8-9.29-26.11-3.31-18.71,9.88-33.85,36.1-33.06,57.25.21,5.54,1.5,10.35,3.74,13.92,5,8,14.8,9.28,26.1,3.31,18.72-9.89,33.85-36.1,33.06-57.25-.21-5.55-1.5-10.36-3.73-13.92Z" style="fill: #3C4E82; transform-origin: 189.76px 398.698px;" id="elxpo9o9a1oi" class="animable"></path><path d="M184.51,433.89c-7.2,3.8-13.77,4.67-18.89,2.73a15.32,15.32,0,0,1-3.57-4c-2.24-3.57-3.53-8.38-3.74-13.92-.79-21.15,14.35-47.37,33.06-57.25,7.2-3.81,13.76-4.67,18.89-2.73a15.33,15.33,0,0,1,3.57,4h0c2.23,3.56,3.52,8.38,3.73,13.92C218.36,397.79,203.22,424,184.51,433.89Z" style="fill: rgb(250, 250, 250); transform-origin: 187.935px 397.669px;" id="eljbg54nuvn5" class="animable"></path><path d="M187.56,366.67a1.73,1.73,0,0,0-.75,1.38v3.88c0,.52.34.75.76.5a1.73,1.73,0,0,0,.75-1.38v-3.88C188.32,366.65,188,366.42,187.56,366.67Z" style="fill: #3C4E82; transform-origin: 187.565px 369.55px;" id="elqoaa1q5bia" class="animable"></path><path d="M213.34,381.55a1.73,1.73,0,0,1-.82,1.34l-3.36,1.95c-.45.26-.81.08-.81-.4a1.74,1.74,0,0,1,.82-1.35l3.36-1.95C213,380.89,213.34,381.07,213.34,381.55Z" style="fill: #3C4E82; transform-origin: 210.845px 382.993px;" id="el2kda1qv8nde" class="animable"></path><path d="M160.84,413a1.76,1.76,0,0,1,.82-1.35l3.36-1.94c.45-.26.81-.08.81.4a1.74,1.74,0,0,1-.82,1.35l-3.36,1.94C161.2,413.61,160.84,413.43,160.84,413Z" style="fill: #3C4E82; transform-origin: 163.335px 411.539px;" id="elli5o1ufuh1s" class="animable"></path><path d="M186.62,427.83a1.73,1.73,0,0,0,.75-1.38v-3.89c0-.51-.34-.74-.76-.49a1.73,1.73,0,0,0-.75,1.38v3.88C185.86,427.85,186.2,428.07,186.62,427.83Z" style="fill: #3C4E82; transform-origin: 186.615px 424.948px;" id="eln2u2hpof3ho" class="animable"></path></g><polygon points="189.09 400.1 170.07 397.37 190.58 397.37 189.09 400.1" style="fill: #3C4E82; transform-origin: 180.325px 398.735px;" id="el299yfthk3ih" class="animable"></polygon><path d="M189.82,376.48s1.76,16.34,2.31,20.13a2.73,2.73,0,0,1,.08.67,5.42,5.42,0,0,1-2.45,4.24,1.71,1.71,0,0,1-1.73.18l-1.31-.76a1.7,1.7,0,0,1-.73-1.59c-.23-3.92,1.23-22.72,1.23-22.72l1.27-.91Z" style="fill: rgb(55, 71, 79); transform-origin: 189.088px 388.788px;" id="elzxrqllumasp" class="animable"></path><path d="M192.21,397.28a5.42,5.42,0,0,1-2.45,4.24c-1.35.79-2.45.15-2.45-1.41-.22-3.91,1.23-22.71,1.23-22.71l1.28-.92S192.2,395.71,192.21,397.28Z" style="fill: rgb(69, 90, 100); transform-origin: 189.749px 389.169px;" id="el0p55jb7fuzw" class="animable"></path><path d="M190.87,398.06a2.48,2.48,0,0,1-1.11,1.92c-.61.35-1.11.06-1.11-.64a2.45,2.45,0,0,1,1.11-1.92C190.37,397.07,190.87,397.35,190.87,398.06Z" style="fill: rgb(38, 50, 56); transform-origin: 189.76px 398.699px;" id="elv0d7uugh9b" class="animable"></path><g id="elb1cx5buq22c"><rect x="205.62" y="396.8" width="3.97" height="0.33" style="fill: rgb(55, 71, 79); transform-origin: 207.605px 396.965px; transform: rotate(-6.87deg);" class="animable" id="elj0k7jdu99l"></rect></g><g id="elpk7a46vexm"><rect x="196.92" y="413.2" width="0.33" height="3.97" style="fill: rgb(55, 71, 79); transform-origin: 197.085px 415.185px; transform: rotate(-23.14deg);" class="animable" id="elvxnho2dupvp"></rect></g><g id="elm6bvmd6aq1j"><rect x="177.07" y="377.45" width="0.33" height="3.97" style="fill: rgb(55, 71, 79); transform-origin: 177.235px 379.435px; transform: rotate(-23.14deg);" class="animable" id="el9hlh5h62wb4"></rect></g><g id="elg4qb53k6rmm"><rect x="164.74" y="397.49" width="3.97" height="0.33" style="fill: rgb(55, 71, 79); transform-origin: 166.725px 397.655px; transform: rotate(-6.87deg);" class="animable" id="ely1u73vko8c"></rect></g><g id="elkzwo86e80f"><rect x="207.9" y="371.65" width="5.31" height="0.33" style="fill: rgb(55, 71, 79); transform-origin: 210.555px 371.815px; transform: rotate(-48.29deg);" class="animable" id="el54bb4te7slk"></rect></g><g id="eluf8u78v698"><rect x="194.72" y="364.05" width="5.31" height="0.33" style="fill: rgb(55, 71, 79); transform-origin: 197.375px 364.215px; transform: rotate(-71.69deg);" class="animable" id="ellcntmj8hwai"></rect></g><g id="elde6nfqu6epa"><rect x="174.12" y="430.16" width="5.31" height="0.33" style="fill: rgb(55, 71, 79); transform-origin: 176.775px 430.325px; transform: rotate(-71.69deg);" class="animable" id="eln7z3dw0sw5e"></rect></g><g id="elai1wrs366zq"><rect x="160.95" y="422.55" width="5.31" height="0.33" style="fill: rgb(55, 71, 79); transform-origin: 163.605px 422.715px; transform: rotate(-48.26deg);" class="animable" id="elnke014070o"></rect></g></g><path d="M186.76,344.9a1.21,1.21,0,0,0-.71-1,3.81,3.81,0,0,0-3.45,0,1.21,1.21,0,0,0-.71,1v9.35a1.21,1.21,0,0,0,.71,1,3.81,3.81,0,0,0,3.45,0,1.21,1.21,0,0,0,.71-1Z" style="fill: rgb(69, 90, 100); transform-origin: 184.325px 349.575px;" id="eljrjb6xm6z3d" class="animable"></path><path d="M182.6,345.9a1.23,1.23,0,0,1-.71-1,1.21,1.21,0,0,1,.71-1,3.81,3.81,0,0,1,3.45,0,1.21,1.21,0,0,1,.71,1,1.23,1.23,0,0,1-.71,1A3.81,3.81,0,0,1,182.6,345.9Z" style="fill: rgb(55, 71, 79); transform-origin: 184.325px 344.9px;" id="el6gma7k6n1l7" class="animable"></path><path d="M191.29,339.19a3.45,3.45,0,0,0-2-2.84,10.87,10.87,0,0,0-9.84,0,3.45,3.45,0,0,0-2,2.84v8.52a3.45,3.45,0,0,0,2,2.84,10.87,10.87,0,0,0,9.84,0,3.45,3.45,0,0,0,2-2.84Z" style="fill: #3C4E82; transform-origin: 184.37px 343.45px;" id="elhsefgsb0t5b" class="animable"></path><g id="elt7l5noaixj"><path d="M179.41,342a3,3,0,0,1,0-5.68,10.87,10.87,0,0,1,9.84,0,3,3,0,0,1,0,5.68A10.87,10.87,0,0,1,179.41,342Z" style="fill: rgb(255, 255, 255); opacity: 0.3; transform-origin: 184.33px 339.16px;" class="animable" id="el3m450hzijii"></path></g><g id="elqmcxo5dkyas"><path d="M179.71,342.18v8.52c.19.09.4.19.61.27v-8.51A5.67,5.67,0,0,1,179.71,342.18Zm2.13.75v8.53l.61.1V343A4.1,4.1,0,0,1,181.84,342.93ZM178,340.86v8.52a4.39,4.39,0,0,0,.61.61v-8.51A3.56,3.56,0,0,1,178,340.86Zm10.25,1.63V351a5.67,5.67,0,0,0,.61-.28v-8.51A4.72,4.72,0,0,1,188.26,342.49Zm1.7-.95v8.51a4.2,4.2,0,0,0,.6-.59V341A3.63,3.63,0,0,1,190,341.54Zm-3.83,1.51v8.52l.61-.1v-8.53A4.34,4.34,0,0,1,186.13,343.05Zm-2.11.14v8.52h.61v-8.52A3.11,3.11,0,0,1,184,343.19Z" style="opacity: 0.2; transform-origin: 184.275px 346.285px;" class="animable" id="eljk3kn5whh4p"></path></g><path d="M163.35,378.8c-3.7,6.39-10.66,9.28-15.9,6.26a13.38,13.38,0,1,1,13.4-23.16C166.06,365,167,372.4,163.35,378.8Z" style="fill: rgb(69, 90, 100); transform-origin: 153.074px 373.132px;" id="el0v6d29yfxn4" class="animable"></path><path d="M147.45,385.06c5.24,3,12.2.13,15.9-6.26a17,17,0,0,0,1.82-4.59c-.22.28-6.37,8.13-14,5.92s-9.25-8.25-8.58-13.35A13.37,13.37,0,0,0,147.45,385.06Z" style="fill: rgb(55, 71, 79); transform-origin: 152.977px 376.516px;" id="elzuknhw9b96" class="animable"></path><path d="M145.3,365.48l-1.94-1.13a2.4,2.4,0,0,0-2.46,4.12l2,1.16a2.16,2.16,0,0,0,2.74-1.18C146.3,367.3,146.15,366,145.3,365.48Z" style="fill: #3C4E82; transform-origin: 142.916px 366.903px;" id="elu6kzqycnfx" class="animable"></path><path d="M219.65,343.78l2.3-4a2.4,2.4,0,0,0-4.13-2.46l-2.32,4a2.16,2.16,0,0,0,1.18,2.74C217.83,344.78,219.16,344.63,219.65,343.78Z" style="fill: #3C4E82; transform-origin: 218.827px 340.333px;" id="el2zzi3e3gpzl" class="animable"></path><path d="M201.29,344a13.38,13.38,0,0,1,23.16,13.39Z" style="fill: rgb(69, 90, 100); transform-origin: 213.689px 347.493px;" id="elo9vbg417qwl" class="animable"></path><path d="M221.55,340.48c.76,1.58,2.81,8.26,0,9.92s-15.77-3.85-15.77-3.85l18.68,10.8A13.37,13.37,0,0,0,221.55,340.48Z" style="fill: rgb(55, 71, 79); transform-origin: 216.017px 348.915px;" id="el365uet0zuk5" class="animable"></path></g></g></g><g id="freepik--lines-1--inject-5" class="animable" style="transform-origin: 203.335px 168.737px;"><path id="freepik--lines--inject-5" d="M264.35,266.07a2.3,2.3,0,0,0-1.1-1.46l-204-114.53,201.9,119.13a2.28,2.28,0,0,0,3.37-2.56Zm81.76-124.68-60-32,57.67,36a2.23,2.23,0,0,0,1.69.29h.09A2.27,2.27,0,0,0,346.11,141.39Zm-31.59,19.27L148.93,67.94l163,96.94a2.29,2.29,0,0,0,2.65-.23l.31-.26A2.27,2.27,0,0,0,314.52,160.66Zm-45.78,66.88a2.28,2.28,0,0,0,3.36-1.32c.22-.77.46-1.55.7-2.32h0l-143-79.54Zm20-38.89-99.21-54.36L286.21,193a2.29,2.29,0,0,0,3.06-.69l.27-.4A2.28,2.28,0,0,0,288.78,188.65Z" style="fill: rgb(245, 245, 245); transform-origin: 203.335px 168.737px;" class="animable"></path></g><g id="freepik--clock-1--inject-5" class="animable" style="transform-origin: 317.018px 201.055px;"><g id="freepik--clock--inject-5" class="animable" style="transform-origin: 317.018px 201.055px;"><path d="M276.26,200.08c-14.18-3.6-29.56,2.15-52.47-10.73-19.25-10.83-35.76-35.61-39.68-19.92C182.76,177,194.66,195.27,201.6,201c-15.69-7-20-4.4-14.43,7.35,7.19,15.16,24.27,26.21,24.27,26.21s-11.61,2.63-1.53,12.47c13.31,13,39.4,11.92,39.4,11.92s-20.11,5.52-9.66,10.67a27.27,27.27,0,0,0,9.72,2.12c32.55,2.16,58.06-35.4,44.29-60.61C289.9,204.23,281.88,201.51,276.26,200.08Z" style="fill: #3C4E82; transform-origin: 240.74px 218.097px;" id="el3z4ec31uack" class="animable"></path><g id="elrjtfxbdkb1s"><path d="M276.26,200.08c-14.18-3.6-29.56,2.15-52.47-10.73-19.25-10.83-35.76-35.61-39.68-19.92C182.76,177,194.66,195.27,201.6,201c-15.69-7-20-4.4-14.43,7.35,7.19,15.16,24.27,26.21,24.27,26.21s-11.61,2.63-1.53,12.47c13.31,13,39.4,11.92,39.4,11.92s-20.11,5.52-9.66,10.67a27.27,27.27,0,0,0,9.72,2.12c32.55,2.16,58.06-35.4,44.29-60.61C289.9,204.23,281.88,201.51,276.26,200.08Z" style="fill: rgb(255, 255, 255); opacity: 0.65; transform-origin: 240.74px 218.097px;" class="animable" id="elkvnxj9h9zae"></path></g><g id="elqc4yzz0clqd"><path d="M279.65,213.18c-8.86-3.22-18.26-4.61-27.33-7.14-12.1-3.38-23.53-8.76-34.89-14.12l-8.07-5.63c-2.43,4.32-.94,10.57,1.6,14.82s6.58,7.38,10.75,10c-2.07,2.22-2.07,5.83-.65,8.51s4,4.59,6.61,6.09a38.55,38.55,0,0,0,12.57,4.46c-3.38,1.19-3.09,4.18-2.78,5.54a10.5,10.5,0,0,0,5,6.36c3.12,1.84,6.83,2.38,10.44,2.77a68.64,68.64,0,0,0,11.19-.09c-1.23,1.84.06,4.42,1.88,5.67,5.23,3.62,12.51,3.42,18.36,1.59a29.28,29.28,0,0,0,6.22-2.81c4.81-7.66,7.4-16.42,6.9-24.84C292.73,219.23,286.28,215.6,279.65,213.18Z" style="fill: #3C4E82; opacity: 0.4; transform-origin: 252.818px 219.791px;" class="animable" id="el6vrs0fkbjoa"></path></g><path d="M267.22,199.9a223.21,223.21,0,0,1-26.87-5.46c-8.79-2.38-16.91-5.88-25.36-9.13a6.28,6.28,0,0,0-3.62-.58c-1.88.46-2.77,2.59-2.87,4.52a16.62,16.62,0,0,0,2.35,8.51A27.63,27.63,0,0,0,226.5,209.2a5.66,5.66,0,0,0-3.67,5.78c.39,3.92,3.11,5.89,5.33,7.31,5.59,3.58,13.07,5,19.67,5.69-2.52,1.07-5.34,2.45-6.09,5.09-1.7,6,6.24,7.94,10.42,8.72,5.59,1,11.35.6,17,.15-1.7,1.23-1.31,4.07.23,5.5,4.73,4.41,15.18,2.06,19.78-1.64,6.28-5.07,9.08-12.62,8.18-22.54-1.4-7-6.25-14.81-12.34-18.6-5.08-3.16-11.27-3.84-17.2-4.68Z" style="fill: #3C4E82; transform-origin: 253.007px 217.254px;" id="elbcj670nc5l8" class="animable"></path><g id="el7bp310b1tf8"><path d="M267.22,199.9a223.21,223.21,0,0,1-26.87-5.46c-8.79-2.38-16.91-5.88-25.36-9.13a6.28,6.28,0,0,0-3.62-.58c-1.88.46-2.77,2.59-2.87,4.52a16.62,16.62,0,0,0,2.35,8.51A27.63,27.63,0,0,0,226.5,209.2a5.66,5.66,0,0,0-3.67,5.78c.39,3.92,3.11,5.89,5.33,7.31,5.59,3.58,13.07,5,19.67,5.69-2.52,1.07-5.34,2.45-6.09,5.09-1.7,6,6.24,7.94,10.42,8.72,5.59,1,11.35.6,17,.15-1.7,1.23-1.31,4.07.23,5.5,4.73,4.41,15.18,2.06,19.78-1.64,6.28-5.07,9.08-12.62,8.18-22.54-1.4-7-6.25-14.81-12.34-18.6-5.08-3.16-11.27-3.84-17.2-4.68Z" style="fill: rgb(255, 255, 255); opacity: 0.75; transform-origin: 253.007px 217.254px;" class="animable" id="el6joyfdsxfy5"></path></g><g id="el0qzy52ukza"><path d="M293.66,211.12c-3.76-6.89-11.78-9.61-17.4-11-14.18-3.6-29.56,2.15-52.47-10.73-14-7.85-26.48-23-33.8-24.81l.24,2.61c6.93,2.53,12.1,11.29,22.84,20.5s24.39,15.12,43.8,16.8,29.13,0,36.55,11.27c1.18,1.79,2.08,2.15,2.76,1.48A30.75,30.75,0,0,0,293.66,211.12Z" style="fill: #3C4E82; opacity: 0.4; transform-origin: 243.085px 191.067px;" class="animable" id="eloalaye1z3id"></path></g><path d="M297.33,223.26c-.45-11.51-7.35-25.92-26.87-26.07-26.17-.21-45-7.34-65.52-26.4-10-9.27-20.94-10.12-20.92.44.7-6.17,8.14-6,16.49,2.73,9.66,10.11,20.57,20.7,42.84,25.89s30.47,2,38.81,5.59C288.46,208.15,294.08,215.11,297.33,223.26Z" style="fill: #3C4E82; transform-origin: 240.675px 193.416px;" id="elqgvskeoy1m" class="animable"></path><g id="el2v9e2okpcgo"><path d="M297.33,223.26c-.45-11.51-7.35-25.92-26.87-26.07-26.17-.21-45-7.34-65.52-26.4-10-9.27-20.94-10.12-20.92.44.7-6.17,8.14-6,16.49,2.73,9.66,10.11,20.57,20.7,42.84,25.89s30.47,2,38.81,5.59C288.46,208.15,294.08,215.11,297.33,223.26Z" style="fill: rgb(255, 255, 255); opacity: 0.9; transform-origin: 240.675px 193.416px;" class="animable" id="elvmglebjjje"></path></g><path d="M377.25,152c6.12-12.43,19.68-19.95,24.51-44.41,4.05-20.56-3.59-47.79,10.07-40.9,6.22,3.68,12.05,23.58,11.89,32.12,4.65-15.6,9.12-17.13,14.13-5.84,6.46,14.55,3.9,33.69,3.9,33.69s8.13-5.54,8.28,7.83c.19,16-17.15,38.5-17.15,38.5,4.79-4.25,16.14-9.4,12.15,1.55-1.6,4.41-10.22,14.32-27.63,21.95-20.86,9.14-42.45-6.89-42.92-25.13C374.29,164,374.82,157,377.25,152Z" style="fill: #3C4E82; transform-origin: 412.238px 132.369px;" id="elg437pc8ymcv" class="animable"></path><g id="elh1kxppvz5wc"><path d="M377.25,152c6.12-12.43,19.68-19.95,24.51-44.41,4.05-20.56-3.59-47.79,10.07-40.9,6.22,3.68,12.05,23.58,11.89,32.12,4.65-15.6,9.12-17.13,14.13-5.84,6.46,14.55,3.9,33.69,3.9,33.69s8.13-5.54,8.28,7.83c.19,16-17.15,38.5-17.15,38.5,4.79-4.25,16.14-9.4,12.15,1.55-1.6,4.41-10.22,14.32-27.63,21.95-20.86,9.14-42.45-6.89-42.92-25.13C374.29,164,374.82,157,377.25,152Z" style="fill: rgb(255, 255, 255); opacity: 0.65; transform-origin: 412.238px 132.369px;" class="animable" id="elnu0uz6bj4t"></path></g><g id="elg6fy2fpe78o"><path d="M384.57,162.59c3.12-8.37,7.89-16,11.64-24.1,5-10.8,8.16-22.36,11.29-33.85l.92-9.3c4.59.93,8.16,5.87,9.65,10.32s1.25,9.31.6,14c2.86-.12,5.44,2.11,6.5,4.79a15.35,15.35,0,0,1,.31,8.53A36.56,36.56,0,0,1,421,144.75c2.93-1.69,4.89.36,5.68,1.43a9.92,9.92,0,0,1,1.51,7.5c-.59,3.39-2.48,6.39-4.41,9.23a64.45,64.45,0,0,1-6.94,8c2.08.24,3.13,2.77,2.92,4.86-.62,6-5.23,11.12-10.14,14.2a28,28,0,0,1-5.83,2.75c-11.16,2.46-22.74-2.33-22-10.41C380.87,175.75,382.23,168.86,384.57,162.59Z" style="fill: #3C4E82; opacity: 0.4; transform-origin: 404.941px 144.353px;" class="animable" id="elc6kdw0dgrj6"></path></g><path d="M382.67,145.42a213.92,213.92,0,0,0,12.58-22.72c3.68-7.8,6.16-15.82,9-23.91a6,6,0,0,1,1.81-3c1.49-1.07,3.55-.39,5,.73a15.89,15.89,0,0,1,4.67,7,26.48,26.48,0,0,1-1.41,18.35,5.31,5.31,0,0,1,6.4.93c2.57,2.71,2.31,5.89,2,8.37-.87,6.23-4.41,12.52-8,17.68,2.32-1.16,5-2.33,7.39-1.24,5.32,2.46,1.87,9.41-.14,12.9-2.69,4.67-6.54,8.54-10.31,12.32,1.92-.47,3.72,1.57,3.8,3.56.26,6.14-7.84,12.21-13.32,13.23-7.49,1.39-16.41,2.66-23-4.13-4.19-5.35-5-17.59-4-24.31.86-5.62,4.17-10.49,7.2-15.28Z" style="fill: #3C4E82; transform-origin: 399.846px 142.988px;" id="elgq460z9wjy" class="animable"></path><g id="elithttb5fs8"><path d="M382.67,145.42a213.92,213.92,0,0,0,12.58-22.72c3.68-7.8,6.16-15.82,9-23.91a6,6,0,0,1,1.81-3c1.49-1.07,3.55-.39,5,.73a15.89,15.89,0,0,1,4.67,7,26.48,26.48,0,0,1-1.41,18.35,5.31,5.31,0,0,1,6.4.93c2.57,2.71,2.31,5.89,2,8.37-.87,6.23-4.41,12.52-8,17.68,2.32-1.16,5-2.33,7.39-1.24,5.32,2.46,1.87,9.41-.14,12.9-2.69,4.67-6.54,8.54-10.31,12.32,1.92-.47,3.72,1.57,3.8,3.56.26,6.14-7.84,12.21-13.32,13.23-7.49,1.39-16.41,2.66-23-4.13-4.19-5.35-5-17.59-4-24.31.86-5.62,4.17-10.49,7.2-15.28Z" style="fill: rgb(255, 255, 255); opacity: 0.75; transform-origin: 399.846px 142.988px;" class="animable" id="elsn2r70igijc"></path></g><g id="elcqz48a2a4q9"><path d="M373.45,172.44c-1.37-7.33,1.37-15.47,3.8-20.4,6.12-12.43,19.68-19.95,24.51-44.41,2.94-14.91-.27-33.33,2.95-39.69l1.73,1.78c-2.44,6.56.67,15.71.68,29.14s-2.6,27.8-13.31,42.81-15,19.6-15.88,32.41c-.24,3.34-.28,6.66-1.18,6.74A22.68,22.68,0,0,1,373.45,172.44Z" style="fill: #3C4E82; opacity: 0.4; transform-origin: 390.102px 124.38px;" class="animable" id="el3js02venvcm"></path></g><path d="M379.15,185.48c-8-7.45-12.29-25.25-.42-39.4,15.91-19,21-37.09,21.29-63.51.16-14.63,5.6-21.34,13.16-14.79-4.86-3.32-9,2.67-8.72,14.89.27,14.08-.11,30-7.18,45.54-8.95,19.73-17.26,23.18-19.81,31.4C375.54,165.83,375.29,178.1,379.15,185.48Z" style="fill: #3C4E82; transform-origin: 392.283px 125.373px;" id="ellr3qxucoq1" class="animable"></path><g id="elazf6b5nb1no"><path d="M379.15,185.48c-8-7.45-12.29-25.25-.42-39.4,15.91-19,21-37.09,21.29-63.51.16-14.63,5.6-21.34,13.16-14.79-4.86-3.32-9,2.67-8.72,14.89.27,14.08-.11,30-7.18,45.54-8.95,19.73-17.26,23.18-19.81,31.4C375.54,165.83,375.29,178.1,379.15,185.48Z" style="fill: rgb(255, 255, 255); opacity: 0.9; transform-origin: 392.283px 125.373px;" class="animable" id="elxelkitcvsjs"></path></g><g id="freepik--timer--inject-5" class="animable" style="transform-origin: 362.529px 238.019px;"><g id="freepik--clock--inject-5" class="animable" style="transform-origin: 362.529px 242.02px;"><g id="freepik--clock--inject-5" class="animable" style="transform-origin: 362.529px 242.02px;"><path d="M404.46,170.79l-26.2-15.11c-10.49-6-24.92-5-40.86,4.17-32.07,18.51-58.06,63.54-58.06,100.57,0,18.41,6.42,31.36,16.81,37.48L322.34,313l3.69-9.71a61.8,61.8,0,0,0,16.06-6.66c32.07-18.51,58.07-63.54,58.07-100.57A62,62,0,0,0,397.93,179Z" style="fill: #3C4E82; transform-origin: 341.9px 232.455px;" id="el0jum6mre34k" class="animable"></path><g id="elti2yzxsaj7q"><path d="M279.84,251.37a87.11,87.11,0,0,0-.5,9.05c0,18.41,6.42,31.36,16.81,37.48L322.34,313l3.69-9.71c1.21-.3,2.43-.66,3.67-1.06l5.49-18.93Z" style="opacity: 0.1; transform-origin: 307.265px 282.185px;" class="animable" id="elqnprp8hy92d"></path></g><g id="el91luv3975m9"><ellipse cx="363.6" cy="242.02" rx="82.12" ry="47.41" style="fill: #3C4E82; transform-origin: 363.6px 242.02px; transform: rotate(-60deg);" class="animable" id="elc787myafxya"></ellipse></g><g id="ele9dfsxljmzu"><ellipse cx="363.6" cy="242.02" rx="82.12" ry="47.41" style="fill: rgb(255, 255, 255); opacity: 0.3; transform-origin: 363.6px 242.02px; transform: rotate(-60deg);" class="animable" id="el3bk3rcax12u"></ellipse></g><path d="M407.66,186.64c-7.2-12.47-22-13.88-39.49-3.76-29,16.75-53.51,59.18-53.5,92.67,0,8.77,1.68,16.33,4.87,21.85,7.2,12.48,22,13.88,39.49,3.76,29-16.74,53.5-59.18,53.5-92.67,0-8.77-1.68-16.33-4.87-21.85Z" style="fill: #3C4E82; transform-origin: 363.6px 242.022px;" id="elm55q69l3jui" class="animable"></path><path d="M408.46,187.1c-8.16-13-24-15-42.26-5.36-30.29,16-54.79,58.44-53.5,92.67.34,9,2.42,16.76,6,22.53,8.16,13,23.95,15,42.26,5.36,30.29-16,54.79-58.44,53.5-92.67-.34-9-2.43-16.76-6-22.53Z" style="fill: #3C4E82; transform-origin: 363.58px 242.02px;" id="el30nw0soxouo" class="animable"></path><path d="M355.1,299c-11.66,6.16-22.29,7.56-30.58,4.42a24.77,24.77,0,0,1-5.78-6.46c-3.62-5.77-5.7-13.56-6-22.53-1.29-34.23,23.21-76.66,53.5-92.67,11.65-6.15,22.28-7.56,30.58-4.42a24.82,24.82,0,0,1,5.78,6.47h0c3.61,5.76,5.7,13.56,6,22.52C409.88,240.55,385.39,283,355.1,299Z" style="fill: rgb(250, 250, 250); transform-origin: 360.67px 240.381px;" id="el5ttwfw4qa5r" class="animable"></path><path d="M360,190.18a2.8,2.8,0,0,0-1.22,2.23v6.29c0,.84.55,1.2,1.22.81a2.85,2.85,0,0,0,1.23-2.24V191C361.26,190.14,360.71,189.78,360,190.18Z" style="fill: #3C4E82; transform-origin: 360.006px 194.842px;" id="el60ir41vch4" class="animable"></path><path d="M401.76,214.27a2.8,2.8,0,0,1-1.32,2.17L395,219.59c-.72.42-1.31.13-1.31-.65a2.84,2.84,0,0,1,1.33-2.18l5.44-3.15C401.18,213.19,401.76,213.48,401.76,214.27Z" style="fill: #3C4E82; transform-origin: 397.725px 216.6px;" id="el3b5hs8t16uo" class="animable"></path><path d="M316.79,265.09a2.82,2.82,0,0,1,1.32-2.18l5.45-3.15c.72-.42,1.31-.12,1.31.66a2.86,2.86,0,0,1-1.33,2.18l-5.44,3.15C317.37,266.17,316.79,265.87,316.79,265.09Z" style="fill: #3C4E82; transform-origin: 320.83px 262.755px;" id="elhy5iybdvqpq" class="animable"></path><path d="M358.51,289.18a2.84,2.84,0,0,0,1.22-2.24v-6.29c0-.84-.55-1.2-1.22-.8a2.81,2.81,0,0,0-1.23,2.23v6.29C357.29,289.21,357.84,289.57,358.51,289.18Z" style="fill: #3C4E82; transform-origin: 358.505px 284.512px;" id="elm7obp86enr" class="animable"></path></g><polygon points="362.51 244.29 331.72 239.87 364.92 239.87 362.51 244.29" style="fill: #3C4E82; transform-origin: 348.32px 242.08px;" id="eljgsj8zw4h4e" class="animable"></polygon><path d="M363.69,206.06s2.85,26.45,3.74,32.58a4.59,4.59,0,0,1,.13,1.09,8.77,8.77,0,0,1-4,6.87,2.77,2.77,0,0,1-2.8.27l-2.12-1.22a2.75,2.75,0,0,1-1.19-2.58c-.36-6.33,2-36.76,2-36.76l2.07-1.49Z" style="fill: rgb(55, 71, 79); transform-origin: 362.486px 225.975px;" id="elvwh2qyxc7e" class="animable"></path><path d="M367.56,239.73a8.77,8.77,0,0,1-4,6.87c-2.19,1.26-4,.24-4-2.29-.36-6.33,2-36.76,2-36.76l2.07-1.49S367.55,237.19,367.56,239.73Z" style="fill: rgb(69, 90, 100); transform-origin: 363.541px 226.6px;" id="eltcwunvhmkl" class="animable"></path><path d="M365.39,241a4,4,0,0,1-1.79,3.1c-1,.57-1.79.11-1.79-1A4,4,0,0,1,363.6,240C364.59,239.38,365.39,239.84,365.39,241Z" style="fill: rgb(38, 50, 56); transform-origin: 363.6px 242.034px;" id="elu4zaxbb6m1" class="animable"></path><g id="el618d63o2rk"><rect x="389.26" y="238.95" width="6.42" height="0.53" style="fill: rgb(55, 71, 79); transform-origin: 392.47px 239.215px; transform: rotate(-6.87deg);" class="animable" id="el7q06ntc9ssq"></rect></g><g id="elvr73gssrwa9"><rect x="375.18" y="265.5" width="0.53" height="6.42" style="fill: rgb(55, 71, 79); transform-origin: 375.445px 268.71px; transform: rotate(-23.14deg);" class="animable" id="elhpoo70rfvpb"></rect></g><g id="eljc0atrpnk6"><rect x="343.06" y="207.63" width="0.53" height="6.42" style="fill: rgb(55, 71, 79); transform-origin: 343.325px 210.84px; transform: rotate(-22.9727deg);" class="animable" id="elkp7n9m1yit"></rect></g><g id="elkmn2xnu144e"><rect x="323.09" y="240.07" width="6.42" height="0.53" style="fill: rgb(55, 71, 79); transform-origin: 326.3px 240.335px; transform: rotate(-6.87deg);" class="animable" id="elo5rmtg28hgn"></rect></g><g id="elix9oybsbiwe"><rect x="392.95" y="198.25" width="8.6" height="0.53" style="fill: rgb(55, 71, 79); transform-origin: 397.25px 198.515px; transform: rotate(-48.27deg);" class="animable" id="el6uvua8oorgo"></rect></g><g id="eld86spst4xii"><rect x="371.63" y="185.94" width="8.6" height="0.53" style="fill: rgb(55, 71, 79); transform-origin: 375.93px 186.205px; transform: rotate(-71.69deg);" class="animable" id="el9idltzdnsut"></rect></g><g id="elsc1hfqm0yu8"><rect x="338.28" y="292.94" width="8.6" height="0.53" style="fill: rgb(55, 71, 79); transform-origin: 342.58px 293.205px; transform: rotate(-71.69deg);" class="animable" id="eloilywqgh9ts"></rect></g><g id="elr26dumkwwtm"><rect x="316.96" y="280.63" width="8.6" height="0.53" style="fill: rgb(55, 71, 79); transform-origin: 321.26px 280.895px; transform: rotate(-48.2245deg);" class="animable" id="eljkvat36a16j"></rect></g></g><path d="M358.74,155a2,2,0,0,0-1.15-1.61,6.16,6.16,0,0,0-5.58,0,2,2,0,0,0-1.16,1.61v15.12a2,2,0,0,0,1.16,1.61,6.16,6.16,0,0,0,5.58,0,1.94,1.94,0,0,0,1.15-1.61Z" style="fill: rgb(69, 90, 100); transform-origin: 354.795px 162.56px;" id="el2msidqp9i4c" class="animable"></path><path d="M352,156.56a1.7,1.7,0,0,1,0-3.22,6.16,6.16,0,0,1,5.58,0,1.7,1.7,0,0,1,0,3.22A6.16,6.16,0,0,1,352,156.56Z" style="fill: rgb(55, 71, 79); transform-origin: 354.79px 154.95px;" id="elsobas5rlg7h" class="animable"></path><path d="M366.07,145.69c0-1.66-1.1-3.32-3.3-4.59a17.6,17.6,0,0,0-15.93,0c-2.2,1.27-3.3,2.93-3.3,4.59v13.8c0,1.67,1.1,3.33,3.3,4.6a17.6,17.6,0,0,0,15.93,0c2.2-1.27,3.3-2.93,3.3-4.6Z" style="fill: #3C4E82; transform-origin: 354.805px 152.595px;" id="elmylfcpj0bss" class="animable"></path><g id="el724uy3h3l7b"><path d="M346.84,150.29c-2.2-1.27-3.3-2.93-3.3-4.59s1.1-3.33,3.3-4.6a17.6,17.6,0,0,1,15.93,0c2.2,1.27,3.3,2.93,3.3,4.59s-1.1,3.33-3.3,4.6A17.6,17.6,0,0,1,346.84,150.29Z" style="fill: rgb(255, 255, 255); opacity: 0.3; transform-origin: 354.805px 145.695px;" class="animable" id="el6mn21a4ld78"></path></g><g id="el0um9h2i0q3gm"><path d="M347.33,150.54v13.78c.31.16.65.32,1,.46V151A8.68,8.68,0,0,1,347.33,150.54Zm3.45,1.22v13.8c.31.06.65.12,1,.16V151.93C351.43,151.89,351.09,151.83,350.78,151.76Zm-6.2-3.36v13.79a7.68,7.68,0,0,0,1,1V149.4A5.13,5.13,0,0,1,344.58,148.4Zm16.59,2.65v13.78a8.06,8.06,0,0,0,1-.45V150.6A7.94,7.94,0,0,1,361.17,151.05Zm2.75-1.55v13.78a7.44,7.44,0,0,0,1-1V148.58A5.74,5.74,0,0,1,363.92,149.5Zm-6.2,2.45v13.79c.33,0,.67-.1,1-.16v-13.8C358.37,151.85,358.05,151.91,357.72,152Zm-3.41.22V166h1v-13.8A4,4,0,0,1,354.31,152.17Z" style="opacity: 0.2; transform-origin: 354.75px 157.2px;" class="animable" id="el4wgog2xruuc"></path></g><path d="M320.84,209.81c-6,10.35-17.25,15-25.72,10.14a21.66,21.66,0,0,1,21.67-37.5C325.24,187.4,326.83,199.45,320.84,209.81Z" style="fill: rgb(69, 90, 100); transform-origin: 304.557px 200.822px;" id="elbqqjeosj5xg" class="animable"></path><path d="M295.12,220c8.47,4.89,19.74.21,25.72-10.14a27.11,27.11,0,0,0,3-7.42c-.35.45-10.31,13.15-22.69,9.58-12.6-3.64-15-13.35-13.89-21.61A21.65,21.65,0,0,0,295.12,220Z" style="fill: rgb(55, 71, 79); transform-origin: 304.088px 206.177px;" id="el1qll69ctrnf" class="animable"></path><path d="M291.63,188.25l-3.14-1.82a3.88,3.88,0,1,0-4,6.67l3.22,1.87c1.37.8,3.36-.06,4.44-1.91S293,189.05,291.63,188.25Z" style="fill: #3C4E82; transform-origin: 287.716px 190.573px;" id="elbvtccwewxo" class="animable"></path><path d="M412,153.13l3.71-6.42a3.88,3.88,0,1,0-6.67-4l-3.76,6.5c-.8,1.37.06,3.36,1.92,4.44S411.18,154.5,412,153.13Z" style="fill: #3C4E82; transform-origin: 410.624px 147.572px;" id="elkq1zae9ax9o" class="animable"></path><path d="M382.26,153.42a21.65,21.65,0,1,1,37.49,21.68Z" style="fill: rgb(69, 90, 100); transform-origin: 402.459px 158.853px;" id="el5yx0jaregk" class="animable"></path><path d="M415.05,147.79c1.23,2.56,4.54,13.37,0,16.06s-25.53-6.24-25.53-6.24l30.24,17.49A21.65,21.65,0,0,0,415.05,147.79Z" style="fill: rgb(55, 71, 79); transform-origin: 406.091px 161.445px;" id="elrt0wivab31s" class="animable"></path></g></g></g><defs>     <filter id="active" height="200%">         <feMorphology in="SourceAlpha" result="DILATED" operator="dilate" radius="2"></feMorphology>                <feFlood flood-color="#32DFEC" flood-opacity="1" result="PINK"></feFlood>        <feComposite in="PINK" in2="DILATED" operator="in" result="OUTLINE"></feComposite>        <feMerge>            <feMergeNode in="OUTLINE"></feMergeNode>            <feMergeNode in="SourceGraphic"></feMergeNode>        </feMerge>    </filter>    <filter id="hover" height="200%">        <feMorphology in="SourceAlpha" result="DILATED" operator="dilate" radius="2"></feMorphology>                <feFlood flood-color="#ff0000" flood-opacity="0.5" result="PINK"></feFlood>        <feComposite in="PINK" in2="DILATED" operator="in" result="OUTLINE"></feComposite>        <feMerge>            <feMergeNode in="OUTLINE"></feMergeNode>            <feMergeNode in="SourceGraphic"></feMergeNode>        </feMerge>            <feColorMatrix type="matrix" values="0   0   0   0   0                0   1   0   0   0                0   0   0   0   0                0   0   0   1   0 "></feColorMatrix>    </filter></defs></svg>